<svg width="32768" height="28354" viewBox="0 0 32768 28354" fill="none" xmlns="http://www.w3.org/2000/svg">
<g clip-path="url(#clip0_17_4)">
<rect width="48420" height="41897" transform="scale(0.676745)" fill="white"/>
<path d="M13419.5 7766.91L14122.8 8630.21L14154.3 8605.05L14194.4 8548.22L13282.9 7301.14L13151.8 6905.97L13251.9 6901.08L13674.8 6738.71L14368.3 6610.37L15707.8 5741.85L15632 5627.44L15155.1 5957.8L14192.3 6500.85L13667.5 6644.58L13140.8 6764.77L12912.7 6846.77L13310.2 7654.13L12374 7676.2L10025.9 7200.27L9925.79 7205.16L9933.09 7299.29L12418.4 7815.77L13419.5 7766.91Z" fill="#BACFDF"/>
<path d="M12194.6 12082.8L14383.9 11486.5L14436.1 11577.9L12333.1 12143.4L12199.8 12149.9L12194.6 12082.8Z" fill="#BACFDF"/>
<path d="M13326.7 10667.2L13871.1 11644.1L13969.3 11615.4L13456.4 10613L15166.9 10218.9L15709.5 11172.1L15841.1 11141.7L15224.4 10096.7L15059.5 10128.6L13480.5 10492.4L12793 10693.2L12802.2 10812.2L13032 10753.2L13326.7 10667.2Z" fill="#BACFDF"/>
<path d="M17163.5 15245.1L16470 14917.4L16523.5 14746.1L16593.8 14790.9L17148.6 15053L18660.8 14304.4L17508.6 13661.7L17697.1 13507.9L19165.6 14352L18875.4 14486.7L18004.7 14890.7L17163.5 15245.1Z" fill="#BACFDF"/>
<path d="M25282.4 19960.9L26274.2 19524.5L26351.4 19623.1L25195 20131.7L24565.8 19805.5L23698.4 20300L23557.3 20211.7L24553 19639.5L24399.4 18956.8L24756 18796.7L24745 18654.4L24845.3 18649.5L24861.8 18862.9L24508.9 19070.5L24725.6 19702.5L25282.4 19960.9Z" fill="#BACFDF"/>
<g filter="url(#filter0_d_17_4)">
<path d="M5341.6 16711.9L5511.63 13717L8501.56 7763.72L8730.63 6828.11L9215.72 4007.44L11377.2 1199.76L13178.3 661.486L13605.9 1422.83L15191.8 4592.77L16613 7367.8L18554.2 9501.17L23615.3 12548.9L25005.8 12765.5L27801.1 13814.2L27960.3 15868.6L28086.6 17498L27820.9 17961.3L24335.8 27470.5L19794.7 25511.5L15362.3 24092.3L11645.2 23254.5L8435.62 22913.4L7496.82 21608.1L5341.6 16711.9Z" stroke="black" stroke-width="10" shape-rendering="crispEdges"/>
</g>
<path d="M25295.6 12887.8C20643.4 16273 11384.1 23120.7 11309.9 23200.1L11658.3 23229.7L11832.4 23285L25806.3 13075.9L25295.6 12887.8Z" fill="#95ABC3"/>
<path d="M9201.64 13374.2L6294.98 12169.9L6204.2 12351.3L9398.02 13744.8L10694.2 14893.3L9793.66 15388.7L9936.46 15500.5L10870.4 15003.5L12404.1 16187.9L13734.1 16907.1L14444.6 17205L15155.1 17503L15633.8 17622.2L16056.9 19674.2L16324.5 19478.3L15980.7 17343.6L15613.6 17361.8L15138.6 17290L13849.4 16663.9L12378.4 15856.5L11054.3 14780.7L9798.9 13725.2L9368.68 13366.1L9834.28 11585.1L9608.17 11263.5L9474.54 11270L9633.84 11594.9L9201.64 13374.2Z" fill="#BACFDF"/>
<path d="M21948.3 15863.6L21527.1 16171.1L23539.5 17400.2L25552 18629.3L26930.8 20366.7L27146.9 19771.2L26005.5 18296.3L21948.3 15863.6Z" fill="#95ABC3"/>
<path d="M19819.3 19089.7L18997.2 18099.7L19098.6 18024.9L19946.5 19038.8L20642.9 19563.2L20591.5 20168.8L20395.5 20178.3L20414.2 19574.4L19819.3 19089.7Z" fill="#BACFDF"/>
<path d="M15750.1 16096L15616.9 17360.5L15982.9 17342.6L15993.1 16177.7L16478.8 15030.9L16235.9 14949.2L15750.1 16096Z" fill="#BACFDF"/>
<path d="M16203.6 14704.5L16225.6 14989L16436.9 15121.4L16542.8 14759.3L17438.8 13787.5L18686.2 12430.4L19616.6 11634.5L19372 11503.7L18561.4 12244L17108.2 12113.9L17117.4 12232.5L18466.8 12357L16394.6 14576.2L14641.4 11401.4L14380 11485.6L16203.6 14704.5Z" fill="#BACFDF"/>
<path d="M21196.1 15847.3L18915.9 14462.9L18899.4 14250.1L21087.1 13146.2L22399.3 14981.4L22241.9 15107.7L21009.1 13434.9L20527.9 13695.8L20906.8 14270.8L20914.1 14365.4L20780.9 14371.9L20398.4 13749.6L19141.7 14356.9L21420 15717.6L21196.1 15847.3Z" fill="#BACFDF"/>
<path d="M23029.5 12227.6L21071.3 13134.6L21188.5 13337.5L23277.8 12377.8L23029.5 12227.6Z" fill="#BACFDF"/>
<path d="M19689 11581.7L19625.9 11632L19318.4 11552.6L19413 11477.2L19568.9 11327.9L20387 10650.8L20562.9 10760.2L20958.9 11118.5L21159.1 11108.7L21370.1 11240L21207 11295.2L22406.1 12511.1L22179.9 12616.6L20375.5 10934.6L19778.1 11435.7L19846.7 11456L20055.9 11563.8L20135.4 11725.1L20379.2 12279.6L21117.4 13164.1L20856 13247.6L20117.9 12363.2L19999.6 12133L19868.5 11738.1L19689 11581.7Z" fill="#BACFDF"/>
<path d="M18519.8 10739.9L19572.8 11328.6L19448.1 11453.2L18887.3 11148.7L18502.8 10954.1L18363.5 10889.8L18192.6 10850.7L17923.1 10840.2L17655.5 10853.2L17456.6 10886.6L16863.6 11034.1L14456.2 11602L14380.1 11487.2L14642.3 11403.3L15763.2 11135.2L17607.4 10665.9L17600.1 10571.5L17546.5 10313.3L17494.7 10078.8L17409.5 9845.89L17404 9775.04L17465.4 9700.92L17571.3 9766.87L17808.1 10656.1L18077.6 10666.7L18313.6 10678.9L18519.8 10739.9Z" fill="#BACFDF"/>
<path d="M12739.1 9567.91L12793.2 10696.2L13019.9 10614.4L12912.1 9653.7L14474.7 9200.47L14367.9 9111.44L12739.1 9567.91Z" fill="#BACFDF"/>
<path d="M14421.6 8891.62L15219.3 10073L15155.9 10123L14480.4 9217.29L14370.8 9105.3L14216.9 8854.68L14156.8 8773.89L14073.8 8744.32C14039.7 8738.17 13958.1 8726.51 13904.5 8729.12C13837.5 8732.39 13601.2 8720.46 13567.7 8722.1C13540.8 8723.41 13331.3 8710.17 13197.3 8716.71L13095 8698.23L13123 8626.46L14100.1 8649.17L14193.4 8550.75L14421.6 8891.62Z" fill="#BACFDF"/>
<path d="M25395.6 15942.8L23366 14868.3L23462.6 14815.6L25458.8 15892.2L25395.6 15942.8Z" fill="#BACFDF"/>
<path d="M25795 16452.2L25385 15936.7L25455.2 15890.9L25929 16445.7L25971.5 16560.1L25913.5 16679.3L25851.9 16752.2L25687.9 16806.8L25421.6 16843.1L25254 16851.2L25082.8 16813L24909.9 16751.6L24733.3 16643.8L24449 16448.1C24377.8 16397.2 24228.3 16291.2 24200.1 16273.9C24171.8 16256.7 23974 16106.4 23878.7 16033.5L23661.4 15834.5L24243.2 15330.8L24320.5 15372L23829 15826.3C23960.2 15928.6 24196.3 16139.1 24224.6 16156.3C24252.8 16173.6 24521.8 16374.7 24651.9 16461.5L24828.5 16569.3L25075.7 16720.2L25349.2 16776.7L25582 16742.1L25779.4 16685.9L25871 16565L25795 16452.2Z" fill="#BACFDF"/>
</g>
<defs>
<filter id="filter0_d_17_4" x="5335.46" y="657.461" width="22757.3" height="26823" filterUnits="userSpaceOnUse" color-interpolation-filters="sRGB">
<feFlood flood-opacity="0" result="BackgroundImageFix"/>
<feColorMatrix in="SourceAlpha" type="matrix" values="0 0 0 0 0 0 0 0 0 0 0 0 0 0 0 0 0 0 127 0" result="hardAlpha"/>
<feOffset dy="4"/>
<feGaussianBlur stdDeviation="2"/>
<feComposite in2="hardAlpha" operator="out"/>
<feColorMatrix type="matrix" values="0 0 0 0 0 0 0 0 0 0 0 0 0 0 0 0 0 0 0.25 0"/>
<feBlend mode="normal" in2="BackgroundImageFix" result="effect1_dropShadow_17_4"/>
<feBlend mode="normal" in="SourceGraphic" in2="effect1_dropShadow_17_4" result="shape"/>
</filter>
<clipPath id="clip0_17_4">
<rect width="48420" height="41897" fill="white" transform="scale(0.676745)"/>
</clipPath>
</defs>
</svg>
